<?xml version="1.0" encoding="UTF-8" standalone="no"?>
<!-- Created with Inkscape (http://www.inkscape.org/) -->

<svg
   xmlns:dc="http://purl.org/dc/elements/1.1/"
   xmlns:cc="http://creativecommons.org/ns#"
   xmlns:rdf="http://www.w3.org/1999/02/22-rdf-syntax-ns#"
   xmlns:svg="http://www.w3.org/2000/svg"
   xmlns="http://www.w3.org/2000/svg"
   xmlns:xlink="http://www.w3.org/1999/xlink"
   xmlns:sodipodi="http://sodipodi.sourceforge.net/DTD/sodipodi-0.dtd"
   xmlns:inkscape="http://www.inkscape.org/namespaces/inkscape"
   width="64.558334mm"
   height="93.48629mm"
   viewBox="0 0 64.558344 93.486279"
   version="1.1"
   id="svg8"
   sodipodi:docname="101st_Airborne_Division.svg"
   inkscape:version="0.92.4 (5da689c313, 2019-01-14)">
  <defs
     id="defs2">
    <linearGradient
       id="linearGradient3777">
      <stop
         offset="0"
         style="stop-color:#b35800;stop-opacity:1"
         id="stop3779" />
    </linearGradient>
    <path
       id="XMLID_6_"
       d="m 43.622,64.985 c -0.388,-1.786 -0.773,-3.577 -1.16,-5.36 -2.712,0.78 -5.421,1.6 -8.125,2.459 -0.378,2.018 -0.756,4.039 -1.133,6.057 -2.437,0.785 -4.867,1.605 -7.295,2.452 2.894,-12.522 5.791,-24.999 8.697,-37.428 2.61,-0.828 5.226,-1.618 7.845,-2.372 2.896,10.676 5.797,21.396 8.702,32.165 -2.515,0.641 -5.026,1.315 -7.531,2.027 z m -5.198,-24.05 c -0.847,4.395 -1.692,8.796 -2.537,13.199 1.692,-0.529 3.386,-1.042 5.083,-1.539 -0.849,-3.889 -1.698,-7.778 -2.546,-11.66 z m 15.339,21.369 c 0,-11.51 0,-23.018 0,-34.527 2.41,-0.59 4.822,-1.151 7.237,-1.68 0,11.507 0,23.017 0,34.526 -2.415,0.529 -4.828,1.089 -7.237,1.681 z m 30.558,-22.41 c -0.623,0.631 -1.474,1.204 -2.556,1.721 0.861,0.301 1.49,0.639 1.885,1.01 0.266,0.248 0.652,0.802 1.16,1.665 0.504,0.862 0.844,1.535 1.015,2.019 1.177,3.179 2.355,6.367 3.532,9.563 -2.736,0.317 -5.471,0.677 -8.201,1.077 -1.295,-3.332 -2.588,-6.652 -3.88,-9.965 -0.491,-1.288 -0.929,-2.104 -1.313,-2.45 -0.522,-0.447 -1.115,-0.616 -1.774,-0.504 -0.214,0.038 -0.428,0.074 -0.642,0.111 0,4.675 0,9.349 0,14.021 -2.422,0.419 -4.841,0.871 -7.26,1.353 0,-11.508 0,-23.016 0,-34.525 4.02,-0.802 8.043,-1.519 12.071,-2.147 2.242,-0.349 3.957,-0.309 5.142,0.094 1.186,0.402 2.142,1.327 2.869,2.764 0.727,1.438 1.091,3.258 1.091,5.455 0,1.914 -0.279,3.599 -0.837,5.061 -0.559,1.457 -1.325,2.681 -2.302,3.677 z m -4.865,-9.352 c -0.482,-0.522 -1.388,-0.684 -2.715,-0.467 -1.065,0.172 -2.13,0.35 -3.194,0.534 0,2.337 0,4.674 0,7.01 1.022,-0.176 2.043,-0.349 3.066,-0.514 0.331,-0.053 0.974,-0.314 1.927,-0.777 0.482,-0.215 0.875,-0.636 1.18,-1.262 0.307,-0.627 0.459,-1.316 0.459,-2.069 0,-1.113 -0.241,-1.933 -0.723,-2.455 z m 29.089,5.402 c 1.691,0.514 2.934,1.493 3.73,2.916 0.798,1.421 1.197,3.234 1.197,5.428 0,1.79 -0.285,3.405 -0.854,4.851 -0.568,1.445 -1.347,2.602 -2.334,3.476 -0.611,0.543 -1.534,0.958 -2.767,1.258 -1.641,0.4 -2.729,0.625 -3.265,0.66 -4.193,0.266 -8.384,0.625 -12.57,1.077 0,-11.509 0,-23.017 0,-34.526 4.544,-0.491 9.09,-0.872 13.641,-1.145 2.275,-0.134 4.022,0.613 5.24,2.212 1.219,1.602 1.829,3.625 1.829,6.063 0,2.044 -0.437,3.813 -1.305,5.308 -0.578,0.997 -1.427,1.801 -2.542,2.422 z m -3.969,-8.1 c -0.445,-0.536 -1.222,-0.772 -2.328,-0.692 -1.073,0.076 -2.147,0.157 -3.221,0.245 0,2.187 0,4.373 0,6.557 1.058,-0.086 2.115,-0.168 3.172,-0.242 1.141,-0.08 1.932,-0.418 2.377,-1.019 0.446,-0.601 0.67,-1.444 0.67,-2.532 0,-1.005 -0.224,-1.779 -0.67,-2.317 z m 0.83,13.147 c -0.509,-0.588 -1.403,-0.845 -2.68,-0.758 -1.232,0.085 -2.466,0.179 -3.699,0.28 0,2.324 0,4.648 0,6.974 1.238,-0.104 2.479,-0.196 3.717,-0.282 1.254,-0.086 2.139,-0.463 2.654,-1.144 0.515,-0.68 0.772,-1.568 0.772,-2.662 0.001,-1.018 -0.254,-1.82 -0.764,-2.408 z m 33.949,5.908 c -0.926,2.53 -2.266,4.462 -4.015,5.818 -1.75,1.356 -3.933,1.99 -6.547,1.926 -2.654,-0.061 -4.854,-0.696 -6.595,-1.939 -1.74,-1.242 -3.151,-3.19 -4.234,-5.862 -1.08,-2.671 -1.621,-6.021 -1.621,-10.058 0,-5.64 1.07,-10.061 3.212,-13.225 2.144,-3.161 5.127,-4.739 8.95,-4.652 3.92,0.087 6.938,1.776 9.06,4.979 2.12,3.206 3.18,7.606 3.18,13.167 0,4.04 -0.463,7.321 -1.39,9.846 z m -7.227,-17.568 c -0.894,-1.536 -2.106,-2.325 -3.638,-2.358 -1.469,-0.034 -2.646,0.715 -3.536,2.229 -0.889,1.517 -1.333,4.042 -1.333,7.563 0,3.491 0.441,6.002 1.326,7.537 0.883,1.534 2.086,2.311 3.607,2.346 1.563,0.035 2.773,-0.67 3.631,-2.136 0.855,-1.463 1.284,-4.125 1.284,-7.995 0.001,-3.254 -0.447,-5.653 -1.341,-7.186 z m 30.739,10.965 c -0.622,0.46 -1.474,0.792 -2.557,1.007 0.862,0.542 1.492,1.057 1.887,1.539 0.265,0.321 0.651,0.983 1.156,1.988 0.507,1.002 0.845,1.771 1.015,2.3 1.176,3.51 2.353,7.026 3.527,10.549 -2.729,-0.445 -5.46,-0.85 -8.194,-1.214 -1.295,-3.692 -2.59,-7.375 -3.885,-11.05 -0.493,-1.425 -0.931,-2.365 -1.314,-2.817 -0.524,-0.593 -1.118,-0.928 -1.782,-1 -0.214,-0.022 -0.427,-0.045 -0.643,-0.069 0,4.673 0,9.348 0,14.022 -2.43,-0.259 -4.86,-0.485 -7.292,-0.681 0,-11.508 0,-23.017 0,-34.526 4.041,0.324 8.08,0.736 12.115,1.234 2.244,0.278 3.959,0.799 5.146,1.531 1.185,0.734 2.139,1.924 2.865,3.565 0.727,1.642 1.09,3.563 1.09,5.759 0,1.915 -0.279,3.524 -0.836,4.828 -0.556,1.303 -1.322,2.315 -2.298,3.035 z M 158,29.585 c -0.482,-0.656 -1.389,-1.07 -2.72,-1.227 -1.066,-0.125 -2.135,-0.244 -3.203,-0.358 0,2.337 0,4.675 0,7.009 1.025,0.11 2.051,0.225 3.075,0.345 0.332,0.04 0.975,-0.042 1.93,-0.237 0.483,-0.08 0.877,-0.391 1.183,-0.933 0.305,-0.541 0.459,-1.188 0.459,-1.939 0,-1.116 -0.243,-2.003 -0.724,-2.66 z m 27.82,31.603 c -2.913,-6.996 -5.83,-13.948 -8.753,-20.853 0,6.332 0,12.663 0,18.994 -2.264,-0.443 -4.531,-0.862 -6.801,-1.251 0,-11.507 0,-23.016 0,-34.524 2.253,0.386 4.503,0.801 6.755,1.241 2.936,6.941 5.871,13.931 8.799,20.964 0,-6.365 0,-12.731 0,-19.097 2.27,0.517 4.536,1.063 6.8,1.637 0,11.508 0,23.018 0,34.526 -2.264,-0.575 -4.53,-1.12 -6.8,-1.637 z m 31.098,1.057 c 0,2.61 0,5.225 0,7.837 -6.487,-2.235 -13.002,-4.24 -19.538,-6.009 0,-11.509 0,-23.018 0,-34.528 6.418,1.74 12.814,3.703 19.186,5.89 0,2.463 0,4.926 0,7.388 -3.984,-1.369 -7.978,-2.649 -11.98,-3.84 0,1.822 0,3.642 0,5.464 3.716,1.107 7.423,2.291 11.124,3.548 0,2.349 0,4.699 0,7.048 -3.701,-1.258 -7.408,-2.44 -11.124,-3.547 0,2.262 0,4.523 0,6.784 4.12,1.228 8.232,2.55 12.332,3.965 z"
       inkscape:connector-curvature="0" />
  </defs>
  <sodipodi:namedview
     id="base"
     pagecolor="#ffffff"
     bordercolor="#666666"
     borderopacity="1.0"
     inkscape:pageopacity="0.0"
     inkscape:pageshadow="2"
     inkscape:zoom="0.24748737"
     inkscape:cx="218.04629"
     inkscape:cy="380.7467"
     inkscape:document-units="mm"
     inkscape:current-layer="layer1"
     showgrid="false"
     inkscape:window-width="960"
     inkscape:window-height="1057"
     inkscape:window-x="949"
     inkscape:window-y="0"
     inkscape:window-maximized="0" />
  <metadata
     id="metadata5">
    <rdf:RDF>
      <cc:Work
         rdf:about="">
        <dc:format>image/svg+xml</dc:format>
        <dc:type
           rdf:resource="http://purl.org/dc/dcmitype/StillImage" />
        <dc:title></dc:title>
      </cc:Work>
    </rdf:RDF>
  </metadata>
  <g
     inkscape:label="Layer 1"
     inkscape:groupmode="layer"
     id="layer1"
     transform="translate(-20.991959,96.990277)">
    <g
       id="g842"
       transform="matrix(0.26458333,0,0,0.26458333,20.991959,-96.990277)">
      <path
         id="path1363"
         style="fill-rule:evenodd"
         d="M 122,0 C 82,0 41.746,6.06 0,27.667 V 102 C 43.854,80.934 71.334,74 122,74 c 50.666,0 78.146,6.934 122,28 V 27.667 C 202.254,6.06 162,0 122,0 Z"
         inkscape:connector-curvature="0" />
      <path
         id="path1365"
         style="fill:none;fill-rule:evenodd;stroke:#ffffff;stroke-width:2.5;stroke-miterlimit:3.86369991"
         d="m 122,10.831 c -36.284,0 -72.799,6.324 -110.666,22.053 V 85 C 51.114,69.663 76.04,64.615 122,64.615 c 45.96,0 70.886,5.048 110.666,20.385 V 32.884 C 194.799,17.154 158.284,10.831 122,10.831 Z"
         inkscape:connector-curvature="0" />
      <path
         id="path1367"
         style="fill-rule:evenodd"
         d="m 122,353.334 c -9.334,-54 -92,3.332 -98,-92.668 v -104 C 24,135.333 17.392,122.681 3.333,104 H 122 240.666 C 226.607,122.681 220,135.333 220,156.666 v 104 c -6,96 -88.666,38.668 -98,92.668 z"
         inkscape:connector-curvature="0" />
      <path
         id="path1369"
         style="fill:#ffffff;fill-rule:evenodd"
         d="m 71.46,138.569 c 3.367,-7.719 14.298,-11.083 32.792,-10.09 34.348,0.814 56.91,15.81 67.685,44.985 11.517,22.34 23.709,33.691 36.574,34.054 2.943,11.352 -8.397,22.146 -24.804,23.543 2.433,14.017 2.572,22.285 0.421,24.806 -8.408,1.262 -10.931,-4.625 -18.497,-6.728 4.834,14.832 5.535,24.081 2.102,27.748 -2.358,1.344 -7.402,-1.179 -15.135,-7.567 -0.085,12.556 -0.646,19.563 -1.682,21.021 -5.197,-0.053 -9.262,-2.996 -12.191,-8.829 -2.815,11.941 -7.16,20.771 -13.033,26.486 -1.914,-0.226 -4.717,-4.289 -8.408,-12.192 -9.004,9.058 -16.36,13.333 -20.81,11.562 0.21,-59.489 9.039,-56.126 10.09,-69.159 l -1.682,-16.816 c -0.55,-4.694 3.304,-9.179 10.3,-13.453 5.064,-3.417 6.116,-6.64 4.414,-12.192 -2.927,-6.29 -6.516,-7.147 -18.707,-18.499 -4.433,-6.23 -10.318,-16.881 -17.657,-31.952 -3.103,-3.455 -7.026,-5.697 -11.772,-6.728 z"
         inkscape:connector-curvature="0" />
      <path
         id="path1371"
         style="fill:#f5ba00;fill-rule:evenodd"
         d="m 32.362,165.057 c 3.512,-17.021 15.563,-25.15 36.155,-24.385 7.042,2.151 11.736,3.692 12.822,7.147 3.201,7.864 9.635,14.073 15.975,28.799 2.733,5.886 11.142,8.618 18.708,18.288 3.14,6.612 1.038,10.817 -6.306,12.612 -4.204,2.942 -4.854,5.106 -7.147,7.567 -1.794,-4.561 -6.624,-8.066 -14.752,-10.256 C 77.5,202 78,204 66.205,202.264 51.807,196.765 42.872,189.861 46.866,182.504 l 10.72,9.459 c 5.263,1.923 13.033,0.841 21.861,2.522 8.927,2.533 14.111,2.253 15.555,-0.841 1.604,-4.404 -0.497,-8.328 -6.306,-11.771 -6.953,-1.713 -15.222,-6.338 -24.804,-13.874 -3.266,-4.32 -7.33,-7.123 -12.192,-8.408 -4.947,-0.284 -11.393,1.538 -19.338,5.466 z"
         inkscape:connector-curvature="0" />
      <path
         id="path1373"
         style="fill:#c50e1f;fill-rule:evenodd"
         d="m 59.269,176.618 c -8.829,-7.988 -11.352,-3.153 -2.943,3.993 9.147,7.518 19.377,12.441 30.689,12.771 5.886,0.842 9.038,-5.624 0.631,-8.146 -8.859,-1.667 -17.868,-3.363 -28.377,-8.618 z"
         inkscape:connector-curvature="0" />
      <path
         id="path1375"
         style="fill-rule:evenodd"
         d="m 134.316,153.594 c -7.646,-0.383 -12.222,-1.689 -15.706,-4.193 3.443,3.284 2.103,6.914 -2.474,8.027 -6.089,0.372 -10.623,-1.483 -13.604,-5.566 -2.176,-3.487 -1.478,-5.387 2.265,-6.187 l -9.809,-4.202 c 7.436,6.938 7.601,11.473 0.495,13.604 11.012,0.951 21.152,4.25 30.422,9.895 -4.204,-5.937 -4.451,-8.41 -1.483,-9.895 1.434,-1.25 4.072,-1.415 9.894,-1.483 z"
         inkscape:connector-curvature="0" />
      <path
         id="path1377"
         style="fill-rule:evenodd"
         d="m 121.207,150.873 c -4.893,-3.974 -10.582,-5.788 -17.066,-5.442 1.589,2.724 3.306,2.767 3.19,5.846 0.493,2.218 0.367,2.218 3.241,4.049 9.152,-1.485 2.172,-6.298 10.635,-4.453 z"
         inkscape:connector-curvature="0" />
      <g
         id="g1379">
	<defs
   id="defs1381">
		<path
   id="path834"
   d="m 43.622,64.985 c -0.388,-1.786 -0.773,-3.577 -1.16,-5.36 -2.712,0.78 -5.421,1.6 -8.125,2.459 -0.378,2.018 -0.756,4.039 -1.133,6.057 -2.437,0.785 -4.867,1.605 -7.295,2.452 2.894,-12.522 5.791,-24.999 8.697,-37.428 2.61,-0.828 5.226,-1.618 7.845,-2.372 2.896,10.676 5.797,21.396 8.702,32.165 -2.515,0.641 -5.026,1.315 -7.531,2.027 z m -5.198,-24.05 c -0.847,4.395 -1.692,8.796 -2.537,13.199 1.692,-0.529 3.386,-1.042 5.083,-1.539 -0.849,-3.889 -1.698,-7.778 -2.546,-11.66 z m 15.339,21.369 c 0,-11.51 0,-23.018 0,-34.527 2.41,-0.59 4.822,-1.151 7.237,-1.68 0,11.507 0,23.017 0,34.526 -2.415,0.529 -4.828,1.089 -7.237,1.681 z m 30.558,-22.41 c -0.623,0.631 -1.474,1.204 -2.556,1.721 0.861,0.301 1.49,0.639 1.885,1.01 0.266,0.248 0.652,0.802 1.16,1.665 0.504,0.862 0.844,1.535 1.015,2.019 1.177,3.179 2.355,6.367 3.532,9.563 -2.736,0.317 -5.471,0.677 -8.201,1.077 -1.295,-3.332 -2.588,-6.652 -3.88,-9.965 -0.491,-1.288 -0.929,-2.104 -1.313,-2.45 -0.522,-0.447 -1.115,-0.616 -1.774,-0.504 -0.214,0.038 -0.428,0.074 -0.642,0.111 0,4.675 0,9.349 0,14.021 -2.422,0.419 -4.841,0.871 -7.26,1.353 0,-11.508 0,-23.016 0,-34.525 4.02,-0.802 8.043,-1.519 12.071,-2.147 2.242,-0.349 3.957,-0.309 5.142,0.094 1.186,0.402 2.142,1.327 2.869,2.764 0.727,1.438 1.091,3.258 1.091,5.455 0,1.914 -0.279,3.599 -0.837,5.061 -0.559,1.457 -1.325,2.681 -2.302,3.677 z m -4.865,-9.352 c -0.482,-0.522 -1.388,-0.684 -2.715,-0.467 -1.065,0.172 -2.13,0.35 -3.194,0.534 0,2.337 0,4.674 0,7.01 1.022,-0.176 2.043,-0.349 3.066,-0.514 0.331,-0.053 0.974,-0.314 1.927,-0.777 0.482,-0.215 0.875,-0.636 1.18,-1.262 0.307,-0.627 0.459,-1.316 0.459,-2.069 0,-1.113 -0.241,-1.933 -0.723,-2.455 z m 29.089,5.402 c 1.691,0.514 2.934,1.493 3.73,2.916 0.798,1.421 1.197,3.234 1.197,5.428 0,1.79 -0.285,3.405 -0.854,4.851 -0.568,1.445 -1.347,2.602 -2.334,3.476 -0.611,0.543 -1.534,0.958 -2.767,1.258 -1.641,0.4 -2.729,0.625 -3.265,0.66 -4.193,0.266 -8.384,0.625 -12.57,1.077 0,-11.509 0,-23.017 0,-34.526 4.544,-0.491 9.09,-0.872 13.641,-1.145 2.275,-0.134 4.022,0.613 5.24,2.212 1.219,1.602 1.829,3.625 1.829,6.063 0,2.044 -0.437,3.813 -1.305,5.308 -0.578,0.997 -1.427,1.801 -2.542,2.422 z m -3.969,-8.1 c -0.445,-0.536 -1.222,-0.772 -2.328,-0.692 -1.073,0.076 -2.147,0.157 -3.221,0.245 0,2.187 0,4.373 0,6.557 1.058,-0.086 2.115,-0.168 3.172,-0.242 1.141,-0.08 1.932,-0.418 2.377,-1.019 0.446,-0.601 0.67,-1.444 0.67,-2.532 0,-1.005 -0.224,-1.779 -0.67,-2.317 z m 0.83,13.147 c -0.509,-0.588 -1.403,-0.845 -2.68,-0.758 -1.232,0.085 -2.466,0.179 -3.699,0.28 0,2.324 0,4.648 0,6.974 1.238,-0.104 2.479,-0.196 3.717,-0.282 1.254,-0.086 2.139,-0.463 2.654,-1.144 0.515,-0.68 0.772,-1.568 0.772,-2.662 0.001,-1.018 -0.254,-1.82 -0.764,-2.408 z m 33.949,5.908 c -0.926,2.53 -2.266,4.462 -4.015,5.818 -1.75,1.356 -3.933,1.99 -6.547,1.926 -2.654,-0.061 -4.854,-0.696 -6.595,-1.939 -1.74,-1.242 -3.151,-3.19 -4.234,-5.862 -1.08,-2.671 -1.621,-6.021 -1.621,-10.058 0,-5.64 1.07,-10.061 3.212,-13.225 2.144,-3.161 5.127,-4.739 8.95,-4.652 3.92,0.087 6.938,1.776 9.06,4.979 2.12,3.206 3.18,7.606 3.18,13.167 0,4.04 -0.463,7.321 -1.39,9.846 z m -7.227,-17.568 c -0.894,-1.536 -2.106,-2.325 -3.638,-2.358 -1.469,-0.034 -2.646,0.715 -3.536,2.229 -0.889,1.517 -1.333,4.042 -1.333,7.563 0,3.491 0.441,6.002 1.326,7.537 0.883,1.534 2.086,2.311 3.607,2.346 1.563,0.035 2.773,-0.67 3.631,-2.136 0.855,-1.463 1.284,-4.125 1.284,-7.995 0.001,-3.254 -0.447,-5.653 -1.341,-7.186 z m 30.739,10.965 c -0.622,0.46 -1.474,0.792 -2.557,1.007 0.862,0.542 1.492,1.057 1.887,1.539 0.265,0.321 0.651,0.983 1.156,1.988 0.507,1.002 0.845,1.771 1.015,2.3 1.176,3.51 2.353,7.026 3.527,10.549 -2.729,-0.445 -5.46,-0.85 -8.194,-1.214 -1.295,-3.692 -2.59,-7.375 -3.885,-11.05 -0.493,-1.425 -0.931,-2.365 -1.314,-2.817 -0.524,-0.593 -1.118,-0.928 -1.782,-1 -0.214,-0.022 -0.427,-0.045 -0.643,-0.069 0,4.673 0,9.348 0,14.022 -2.43,-0.259 -4.86,-0.485 -7.292,-0.681 0,-11.508 0,-23.017 0,-34.526 4.041,0.324 8.08,0.736 12.115,1.234 2.244,0.278 3.959,0.799 5.146,1.531 1.185,0.734 2.139,1.924 2.865,3.565 0.727,1.642 1.09,3.563 1.09,5.759 0,1.915 -0.279,3.524 -0.836,4.828 -0.556,1.303 -1.322,2.315 -2.298,3.035 z M 158,29.585 c -0.482,-0.656 -1.389,-1.07 -2.72,-1.227 -1.066,-0.125 -2.135,-0.244 -3.203,-0.358 0,2.337 0,4.675 0,7.009 1.025,0.11 2.051,0.225 3.075,0.345 0.332,0.04 0.975,-0.042 1.93,-0.237 0.483,-0.08 0.877,-0.391 1.183,-0.933 0.305,-0.541 0.459,-1.188 0.459,-1.939 0,-1.116 -0.243,-2.003 -0.724,-2.66 z m 27.82,31.603 c -2.913,-6.996 -5.83,-13.948 -8.753,-20.853 0,6.332 0,12.663 0,18.994 -2.264,-0.443 -4.531,-0.862 -6.801,-1.251 0,-11.507 0,-23.016 0,-34.524 2.253,0.386 4.503,0.801 6.755,1.241 2.936,6.941 5.871,13.931 8.799,20.964 0,-6.365 0,-12.731 0,-19.097 2.27,0.517 4.536,1.063 6.8,1.637 0,11.508 0,23.018 0,34.526 -2.264,-0.575 -4.53,-1.12 -6.8,-1.637 z m 31.098,1.057 c 0,2.61 0,5.225 0,7.837 -6.487,-2.235 -13.002,-4.24 -19.538,-6.009 0,-11.509 0,-23.018 0,-34.528 6.418,1.74 12.814,3.703 19.186,5.89 0,2.463 0,4.926 0,7.388 -3.984,-1.369 -7.978,-2.649 -11.98,-3.84 0,1.822 0,3.642 0,5.464 3.716,1.107 7.423,2.291 11.124,3.548 0,2.349 0,4.699 0,7.048 -3.701,-1.258 -7.408,-2.44 -11.124,-3.547 0,2.262 0,4.523 0,6.784 4.12,1.228 8.232,2.55 12.332,3.965 z"
   inkscape:connector-curvature="0" />

	</defs>

	<use
   xlink:href="#XMLID_6_"
   height="354"
   width="244"
   y="0"
   x="0"
   id="use1384"
   style="fill:#f5ba00" />

	<clipPath
   id="XMLID_9_">
		<use
   xlink:href="#XMLID_6_"
   height="354"
   width="244"
   y="0"
   x="0"
   id="use1387" />

	</clipPath>

</g>
      <line
         style="fill:#f81c23"
         id="line1389"
         y2="102"
         x2="244"
         y1="104"
         x1="240.666" />
    </g>
  </g>
</svg>
