<?xml version="1.0" encoding="UTF-8" standalone="no"?>
<!-- Created with Inkscape (http://www.inkscape.org/) -->

<svg
   xmlns:dc="http://purl.org/dc/elements/1.1/"
   xmlns:cc="http://creativecommons.org/ns#"
   xmlns:rdf="http://www.w3.org/1999/02/22-rdf-syntax-ns#"
   xmlns:svg="http://www.w3.org/2000/svg"
   xmlns="http://www.w3.org/2000/svg"
   xmlns:sodipodi="http://sodipodi.sourceforge.net/DTD/sodipodi-0.dtd"
   xmlns:inkscape="http://www.inkscape.org/namespaces/inkscape"
   width="79.375mm"
   height="103.88747mm"
   viewBox="0 0 79.375012 103.88746"
   version="1.1"
   id="svg8"
   sodipodi:docname="17th_Airborne_Division.svg"
   inkscape:version="0.92.4 (5da689c313, 2019-01-14)">
  <defs
     id="defs2">
    <linearGradient
       id="linearGradient3777">
      <stop
         offset="0"
         style="stop-color:#b35800;stop-opacity:1"
         id="stop3779" />
    </linearGradient>
    <path
       id="XMLID_6_"
       d="m 43.622,64.985 c -0.388,-1.786 -0.773,-3.577 -1.16,-5.36 -2.712,0.78 -5.421,1.6 -8.125,2.459 -0.378,2.018 -0.756,4.039 -1.133,6.057 -2.437,0.785 -4.867,1.605 -7.295,2.452 2.894,-12.522 5.791,-24.999 8.697,-37.428 2.61,-0.828 5.226,-1.618 7.845,-2.372 2.896,10.676 5.797,21.396 8.702,32.165 -2.515,0.641 -5.026,1.315 -7.531,2.027 z m -5.198,-24.05 c -0.847,4.395 -1.692,8.796 -2.537,13.199 1.692,-0.529 3.386,-1.042 5.083,-1.539 -0.849,-3.889 -1.698,-7.778 -2.546,-11.66 z m 15.339,21.369 c 0,-11.51 0,-23.018 0,-34.527 2.41,-0.59 4.822,-1.151 7.237,-1.68 0,11.507 0,23.017 0,34.526 -2.415,0.529 -4.828,1.089 -7.237,1.681 z m 30.558,-22.41 c -0.623,0.631 -1.474,1.204 -2.556,1.721 0.861,0.301 1.49,0.639 1.885,1.01 0.266,0.248 0.652,0.802 1.16,1.665 0.504,0.862 0.844,1.535 1.015,2.019 1.177,3.179 2.355,6.367 3.532,9.563 -2.736,0.317 -5.471,0.677 -8.201,1.077 -1.295,-3.332 -2.588,-6.652 -3.88,-9.965 -0.491,-1.288 -0.929,-2.104 -1.313,-2.45 -0.522,-0.447 -1.115,-0.616 -1.774,-0.504 -0.214,0.038 -0.428,0.074 -0.642,0.111 0,4.675 0,9.349 0,14.021 -2.422,0.419 -4.841,0.871 -7.26,1.353 0,-11.508 0,-23.016 0,-34.525 4.02,-0.802 8.043,-1.519 12.071,-2.147 2.242,-0.349 3.957,-0.309 5.142,0.094 1.186,0.402 2.142,1.327 2.869,2.764 0.727,1.438 1.091,3.258 1.091,5.455 0,1.914 -0.279,3.599 -0.837,5.061 -0.559,1.457 -1.325,2.681 -2.302,3.677 z m -4.865,-9.352 c -0.482,-0.522 -1.388,-0.684 -2.715,-0.467 -1.065,0.172 -2.13,0.35 -3.194,0.534 0,2.337 0,4.674 0,7.01 1.022,-0.176 2.043,-0.349 3.066,-0.514 0.331,-0.053 0.974,-0.314 1.927,-0.777 0.482,-0.215 0.875,-0.636 1.18,-1.262 0.307,-0.627 0.459,-1.316 0.459,-2.069 0,-1.113 -0.241,-1.933 -0.723,-2.455 z m 29.089,5.402 c 1.691,0.514 2.934,1.493 3.73,2.916 0.798,1.421 1.197,3.234 1.197,5.428 0,1.79 -0.285,3.405 -0.854,4.851 -0.568,1.445 -1.347,2.602 -2.334,3.476 -0.611,0.543 -1.534,0.958 -2.767,1.258 -1.641,0.4 -2.729,0.625 -3.265,0.66 -4.193,0.266 -8.384,0.625 -12.57,1.077 0,-11.509 0,-23.017 0,-34.526 4.544,-0.491 9.09,-0.872 13.641,-1.145 2.275,-0.134 4.022,0.613 5.24,2.212 1.219,1.602 1.829,3.625 1.829,6.063 0,2.044 -0.437,3.813 -1.305,5.308 -0.578,0.997 -1.427,1.801 -2.542,2.422 z m -3.969,-8.1 c -0.445,-0.536 -1.222,-0.772 -2.328,-0.692 -1.073,0.076 -2.147,0.157 -3.221,0.245 0,2.187 0,4.373 0,6.557 1.058,-0.086 2.115,-0.168 3.172,-0.242 1.141,-0.08 1.932,-0.418 2.377,-1.019 0.446,-0.601 0.67,-1.444 0.67,-2.532 0,-1.005 -0.224,-1.779 -0.67,-2.317 z m 0.83,13.147 c -0.509,-0.588 -1.403,-0.845 -2.68,-0.758 -1.232,0.085 -2.466,0.179 -3.699,0.28 0,2.324 0,4.648 0,6.974 1.238,-0.104 2.479,-0.196 3.717,-0.282 1.254,-0.086 2.139,-0.463 2.654,-1.144 0.515,-0.68 0.772,-1.568 0.772,-2.662 0.001,-1.018 -0.254,-1.82 -0.764,-2.408 z m 33.949,5.908 c -0.926,2.53 -2.266,4.462 -4.015,5.818 -1.75,1.356 -3.933,1.99 -6.547,1.926 -2.654,-0.061 -4.854,-0.696 -6.595,-1.939 -1.74,-1.242 -3.151,-3.19 -4.234,-5.862 -1.08,-2.671 -1.621,-6.021 -1.621,-10.058 0,-5.64 1.07,-10.061 3.212,-13.225 2.144,-3.161 5.127,-4.739 8.95,-4.652 3.92,0.087 6.938,1.776 9.06,4.979 2.12,3.206 3.18,7.606 3.18,13.167 0,4.04 -0.463,7.321 -1.39,9.846 z m -7.227,-17.568 c -0.894,-1.536 -2.106,-2.325 -3.638,-2.358 -1.469,-0.034 -2.646,0.715 -3.536,2.229 -0.889,1.517 -1.333,4.042 -1.333,7.563 0,3.491 0.441,6.002 1.326,7.537 0.883,1.534 2.086,2.311 3.607,2.346 1.563,0.035 2.773,-0.67 3.631,-2.136 0.855,-1.463 1.284,-4.125 1.284,-7.995 0.001,-3.254 -0.447,-5.653 -1.341,-7.186 z m 30.739,10.965 c -0.622,0.46 -1.474,0.792 -2.557,1.007 0.862,0.542 1.492,1.057 1.887,1.539 0.265,0.321 0.651,0.983 1.156,1.988 0.507,1.002 0.845,1.771 1.015,2.3 1.176,3.51 2.353,7.026 3.527,10.549 -2.729,-0.445 -5.46,-0.85 -8.194,-1.214 -1.295,-3.692 -2.59,-7.375 -3.885,-11.05 -0.493,-1.425 -0.931,-2.365 -1.314,-2.817 -0.524,-0.593 -1.118,-0.928 -1.782,-1 -0.214,-0.022 -0.427,-0.045 -0.643,-0.069 0,4.673 0,9.348 0,14.022 -2.43,-0.259 -4.86,-0.485 -7.292,-0.681 0,-11.508 0,-23.017 0,-34.526 4.041,0.324 8.08,0.736 12.115,1.234 2.244,0.278 3.959,0.799 5.146,1.531 1.185,0.734 2.139,1.924 2.865,3.565 0.727,1.642 1.09,3.563 1.09,5.759 0,1.915 -0.279,3.524 -0.836,4.828 -0.556,1.303 -1.322,2.315 -2.298,3.035 z M 158,29.585 c -0.482,-0.656 -1.389,-1.07 -2.72,-1.227 -1.066,-0.125 -2.135,-0.244 -3.203,-0.358 0,2.337 0,4.675 0,7.009 1.025,0.11 2.051,0.225 3.075,0.345 0.332,0.04 0.975,-0.042 1.93,-0.237 0.483,-0.08 0.877,-0.391 1.183,-0.933 0.305,-0.541 0.459,-1.188 0.459,-1.939 0,-1.116 -0.243,-2.003 -0.724,-2.66 z m 27.82,31.603 c -2.913,-6.996 -5.83,-13.948 -8.753,-20.853 0,6.332 0,12.663 0,18.994 -2.264,-0.443 -4.531,-0.862 -6.801,-1.251 0,-11.507 0,-23.016 0,-34.524 2.253,0.386 4.503,0.801 6.755,1.241 2.936,6.941 5.871,13.931 8.799,20.964 0,-6.365 0,-12.731 0,-19.097 2.27,0.517 4.536,1.063 6.8,1.637 0,11.508 0,23.018 0,34.526 -2.264,-0.575 -4.53,-1.12 -6.8,-1.637 z m 31.098,1.057 c 0,2.61 0,5.225 0,7.837 -6.487,-2.235 -13.002,-4.24 -19.538,-6.009 0,-11.509 0,-23.018 0,-34.528 6.418,1.74 12.814,3.703 19.186,5.89 0,2.463 0,4.926 0,7.388 -3.984,-1.369 -7.978,-2.649 -11.98,-3.84 0,1.822 0,3.642 0,5.464 3.716,1.107 7.423,2.291 11.124,3.548 0,2.349 0,4.699 0,7.048 -3.701,-1.258 -7.408,-2.44 -11.124,-3.547 0,2.262 0,4.523 0,6.784 4.12,1.228 8.232,2.55 12.332,3.965 z"
       inkscape:connector-curvature="0" />
  </defs>
  <sodipodi:namedview
     id="base"
     pagecolor="#ffffff"
     bordercolor="#666666"
     borderopacity="1.0"
     inkscape:pageopacity="0.0"
     inkscape:pageshadow="2"
     inkscape:zoom="0.24748737"
     inkscape:cx="77.122361"
     inkscape:cy="197.25213"
     inkscape:document-units="mm"
     inkscape:current-layer="layer1"
     showgrid="false"
     inkscape:window-width="960"
     inkscape:window-height="1057"
     inkscape:window-x="949"
     inkscape:window-y="0"
     inkscape:window-maximized="0" />
  <metadata
     id="metadata5">
    <rdf:RDF>
      <cc:Work
         rdf:about="">
        <dc:format>image/svg+xml</dc:format>
        <dc:type
           rdf:resource="http://purl.org/dc/dcmitype/StillImage" />
        <dc:title></dc:title>
      </cc:Work>
    </rdf:RDF>
  </metadata>
  <g
     inkscape:label="Layer 1"
     inkscape:groupmode="layer"
     id="layer1"
     transform="translate(-58.278083,155.94106)">
    <g
       id="g867"
       transform="matrix(0.26458333,0,0,0.26458333,58.278083,-156.03484)">
      <circle
         id="circle844"
         style="fill:#000000"
         r="144"
         cy="243"
         cx="150" />
      <path
         id="path846"
         style="fill:#000000;stroke:none"
         d="m 0,31.470342 c 86.96024,-41.63082 215.18102,-41.3447056 300,0 V 120.7637 c -96.53567,-36.567885 -195.77151,-44.633942 -300,0 z"
         inkscape:connector-curvature="0" />
      <path
         id="path848"
         style="fill:#ffff00;fill-rule:evenodd;stroke:none"
         d="m 158.03724,20.0762 c -9.58195,0 -17.30522,8.2335 -17.30522,18.47175 v 8.85059 c 0,10.23825 7.72327,18.48245 17.30522,18.48245 h 1.73374 c 9.58194,0 17.29452,-8.2442 17.29452,-18.48245 v -8.85059 c 0,-10.23825 -7.71258,-18.47175 -17.29452,-18.47175 z m -0.33176,7.97303 h 2.39726 c 4.95889,0 8.94692,6.19478 8.94692,13.89127 v 2.15111 c 0,7.69649 -3.98803,13.89127 -8.94692,13.89127 h -2.39726 c -4.95889,0 -8.94692,-6.19478 -8.94692,-13.89127 V 41.9405 c 0,-7.69649 3.98803,-13.89127 8.94692,-13.89127 z m -32.87671,-6.99914 c -0.85365,0.008 -1.75043,0.0931 -2.70762,0.25684 l -17.13399,1.61602 v 45.14126 l 21.66096,-1.81935 c 14.28655,-1.91679 13.31185,-21.03418 4.23801,-24.68964 7.98908,-4.22759 6.74733,-20.62982 -6.05736,-20.50513 z m -2.20463,8.31549 c 6.59443,-0.33585 7.27278,9.00739 0.20334,9.57834 l -9.47132,0.503 v -9.57834 z m 0.26756,17.40154 c 0.19565,-0.005 0.39302,-0.002 0.58861,0 2.73823,0.0339 5.17409,0.99133 5.37243,5.36173 0.22667,4.99475 -2.94725,5.99831 -6.35702,6.34632 l -9.13956,0.62072 V 47.41995 l 8.94692,-0.62072 c 0.19904,-0.0128 0.39296,-0.0267 0.58862,-0.0321 z M 68.366274,28.8792 v 44.67038 l 7.823202,-1.19106 V 53.88677 c 3.757185,-0.97135 6.367384,-0.57423 8.037243,2.18302 1.66986,2.75726 7.095463,13.73263 7.095463,13.73263 L 101.44633,68.46628 C 99.463366,62.14586 94.478921,51.84551 89.556342,50.26305 95.296486,48.41086 99.385798,45.46855 99.049065,34.49939 98.718226,23.72229 88.902822,25.1731 84.644099,25.99524 80.132452,26.86621 68.366274,28.8792 68.366274,28.8792 Z m 7.930223,6.29115 c 0,0 5.848037,-1.04302 8.979024,-1.52198 3.130986,-0.47897 5.321575,0.97741 5.425941,3.76542 0.112086,2.99425 -1.147096,6.27885 -4.591181,6.84746 -3.958849,0.6536 -9.918151,1.69189 -9.813784,1.55764 z m -21.921696,-2.93894 8.244935,-1.90404 v 44.9564 l -8.244935,1.90404 z M 28.700712,66.64682 33.188459,50.67878 37.36311,63.72456 Z M 14.92437,89.18992 28.700712,39.61597 37.05001,36.90244 51.97438,78.02274 42.581418,80.31879 40.07663,71.86513 26.509021,75.62231 23.586767,86.99823 Z M 182.22389,21.6601 v 44.67038 l 7.8232,1.0488 V 48.90753 c 3.75718,0.10437 6.36738,1.24881 8.03724,4.48417 1.66986,3.23535 7.09546,15.76412 7.09546,15.76412 l 10.12415,1.5625 c -1.98296,-6.88817 -6.96741,-18.61561 -11.88998,-21.60745 5.74014,-0.20873 9.82945,-1.98023 9.49272,-13.0458 C 212.57584,25.19324 202.76043,23.83382 198.50171,23.43664 193.99007,23.01588 182.22389,21.6601 182.22389,21.6601 Z m 7.93022,8.56165 c 0,0 5.84804,0.63133 8.97902,1.0488 3.13099,0.41746 5.32158,2.50103 5.42595,5.31892 0.11208,3.02634 -1.1471,5.95043 -4.59119,5.53296 -3.95885,-0.47986 -9.91815,-1.14777 -9.81378,-1.25214 z m 28.70186,41.22591 V 26.46582 l 7.7231,1.2524 14.61128,31.5186 V 31.05793 l 7.51436,1.77423 v 45.19058 l -8.14056,-2.08733 -14.19381,-30.78804 v 27.76142 z m 36.10978,-36.83807 v 45.08776 l 27.55779,8.76498 V 80.5107 L 263.31336,73.98245 V 62.2744 l 17.95804,6.35702 v -7.64127 l -17.95804,-6.35702 v -9.48202 l 19.21018,6.52826 v -8.3048 z"
         inkscape:connector-curvature="0" />
      <path
         id="path850"
         style="fill:#ffff00;stroke:none"
         d="m 133.43401,101.66907 c 13.97093,24.1427 15.78946,49.1235 1.11196,75.24196 7.9673,-4.20405 15.13489,-10.00752 21.12705,-18.16186 0.63937,8.68094 -1.42563,13.30532 -2.59455,19.27381 2.5447,-2.58897 3.89899,-2.58096 11.1195,-9.6369 -2.68442,5.5897 -3.61431,10.59456 -3.33585,15.19665 2.2126,-3.51587 4.25509,-7.88232 7.413,-6.6717 -2.13049,4.40258 -3.90442,9.34001 -4.07715,16.67925 -2.05496,0.0681 -3.25684,1.41579 -3.33585,4.4478 -6.33772,0.33398 -10.38816,5.58848 -10.00755,10.00755 -7.03758,-0.61298 -13.06072,-0.21152 -15.19666,4.07715 -6.42261,-0.97847 -12.91983,-2.32998 -17.42055,6.30105 -11.39381,-6.01856 -13.95098,-1.23679 -16.67925,3.33585 -8.225449,-5.10304 -15.487716,-6.35336 -20.756401,0.37065 -6.58637,-2.77854 -12.350254,-10.90326 -20.756404,-1.85325 -16.33426,-15.91095 -38.135597,4.83541 -25.204202,18.90315 -18.744087,11.12607 -12.102688,38.76367 2.965202,42.99537 -4.717501,-10.2376 -12.193414,-30.9699 18.398154,-36.06418 9.099003,10.93088 20.585753,6.24478 23.114651,-2.11274 8.222845,5.41402 12.620352,2.41232 15.937952,-2.9652 5.117718,3.05033 9.459088,2.99526 12.602098,-1.85325 5.92696,3.36557 11.10593,4.23781 14.0847,-2.2239 0,0 7.04235,2.2239 6.67171,-1.85325 -0.37066,-4.07715 1.48259,-4.4478 2.96519,-3.33585 1.4826,1.11195 5.1891,0.37065 5.55975,2.59455 0.37065,2.2239 0,3.7065 -2.59454,3.7065 -2.59456,0 -7.04236,4.07715 -6.30106,7.78365 0.7413,3.70647 -10.74885,-1.85325 -13.3434,1.85327 -2.59455,3.7065 -4.81845,9.2662 -4.81845,9.2662 -9.35297,-3.4721 -15.712926,4.4223 -14.0847,12.2315 -18.195038,-4.8207 -29.327494,17.6266 -18.161853,28.1694 -18.817528,21.5899 -1.079243,41.1965 19.273805,37.065 -17.733641,-13.8359 -10.763141,-29.38 1.111948,-36.3237 11.18029,11.9373 23.12063,-1.0376 18.90315,-10.7489 4.20051,3.1504 12.0271,-4.3567 11.76195,-8.9554 -0.22065,-3.8268 -1.04307,-5.4956 0.84015,-5.4999 6.82046,-0.016 9.78589,-7.6797 8.15431,-12.6021 5.09663,-1.328 10.18246,-2.6668 8.52495,-10.7489 0.942,0.471 10.79597,-3.68291 7.78365,-8.89557 -1.65875,-2.87037 3.7065,-3.33585 5.1891,-1.4826 1.4826,1.85325 2.44022,2.10709 0.7413,3.33585 -3.32031,2.40146 -2.11192,12.91672 0,11.86082 -5.10878,3.8084 -11.18434,7.1335 -4.81845,16.6792 -5.1224,5.6286 -10.37176,11.1985 -2.9652,22.6097 -17.08415,10.4902 -5.31617,27.5043 5.9304,24.0922 -0.38261,13.8629 4.00816,36.4313 30.02265,26.6868 -13.78895,-6.9762 -19.19754,-16.7458 -15.19665,-29.652 14.15151,2.9744 22.0782,-13.8742 10.74885,-24.4629 5.14439,-6.2296 3.10671,-11.8062 -2.59455,-17.0499 5.42414,-6.2036 2.14412,-11.4401 -1.11195,-16.6792 4.56774,-5.5336 3.11374,-8.9791 2.90508,-12.60212 3.44087,3.57182 8.43614,4.58352 13.40352,2.9652 0.47726,4.99542 3.03074,8.17412 10.80322,6.78622 5.35887,6.3291 11.5871,5.0512 18.16185,0.7413 6.45596,10.688 20.59184,6.3368 25.52049,-0.4852 5.53242,6.943 4.05391,15.5552 -11.1195,27.4281 19.29257,7.1699 45.02078,-20.6681 17.7912,-39.65952 -2.6755,-7.83842 -10.1714,-19.11608 -21.12705,-6.6717 -5.43621,-6.02854 -10.8724,-7.3489 -16.30861,-1.4826 -6.16688,-5.25477 -11.79831,-5.51189 -17.0499,-2.2239 -1.99005,-3.68199 -4.41386,-6.87238 -10.91196,-5.44526 1.09781,-1.21979 -2.06948,-7.91486 -5.25737,-8.74935 -0.631,-0.16518 -1.31443,-0.83017 -1.2784,-1.48143 0.043,-0.77801 1.03918,-1.19936 1.7131,-1.59051 1.93158,-1.12112 7.0927,-5.11942 10.54553,-9.7909 1.26866,4.39557 1.27484,9.21195 -1.11195,14.826 6.21945,-1.33963 9.38864,-7.08521 12.97275,-12.23145 2.22423,5.00843 0.53316,10.64912 -1.11195,16.84811 10.18168,-2.96448 13.85917,-11.03878 16.88105,-18.47813 1.00113,2.23673 1.87139,5.25867 2.56736,9.32636 5.18614,-3.98385 6.3077,-9.66127 7.9797,-15.10934 9.114,12.34332 19.42851,18.28394 31.50525,14.826 -11.06325,-17.04186 -26.04944,-32.49004 -6.6717,-61.89856 C 221.7601,107.27056 178.5225,96.60348 133.43401,101.66907 Z"
         inkscape:connector-curvature="0" />
      <circle
         id="circle852"
         style="fill:none;stroke:#003314;stroke-width:12px"
         r="144"
         cy="243"
         cx="150" />
    </g>
  </g>
</svg>
