<?xml version="1.0" encoding="UTF-8" standalone="no"?>
<!-- Created with Inkscape (http://www.inkscape.org/) -->

<svg
   xmlns:dc="http://purl.org/dc/elements/1.1/"
   xmlns:cc="http://creativecommons.org/ns#"
   xmlns:rdf="http://www.w3.org/1999/02/22-rdf-syntax-ns#"
   xmlns:svg="http://www.w3.org/2000/svg"
   xmlns="http://www.w3.org/2000/svg"
   xmlns:sodipodi="http://sodipodi.sourceforge.net/DTD/sodipodi-0.dtd"
   xmlns:inkscape="http://www.inkscape.org/namespaces/inkscape"
   width="75.617912mm"
   height="106.3625mm"
   viewBox="0 0 75.617924 106.36249"
   version="1.1"
   id="svg8"
   sodipodi:docname="82nd_Airborne_Division.svg"
   inkscape:version="0.92.4 (5da689c313, 2019-01-14)">
  <defs
     id="defs2">
    <linearGradient
       id="linearGradient3777">
      <stop
         offset="0"
         style="stop-color:#b35800;stop-opacity:1"
         id="stop3779" />
    </linearGradient>
  </defs>
  <sodipodi:namedview
     id="base"
     pagecolor="#ffffff"
     bordercolor="#666666"
     borderopacity="1.0"
     inkscape:pageopacity="0.0"
     inkscape:pageshadow="2"
     inkscape:zoom="0.24748737"
     inkscape:cx="342.52351"
     inkscape:cy="604.10011"
     inkscape:document-units="mm"
     inkscape:current-layer="layer1"
     showgrid="false"
     inkscape:window-width="960"
     inkscape:window-height="1057"
     inkscape:window-x="949"
     inkscape:window-y="0"
     inkscape:window-maximized="0" />
  <metadata
     id="metadata5">
    <rdf:RDF>
      <cc:Work
         rdf:about="">
        <dc:format>image/svg+xml</dc:format>
        <dc:type
           rdf:resource="http://purl.org/dc/dcmitype/StillImage" />
        <dc:title></dc:title>
      </cc:Work>
    </rdf:RDF>
  </metadata>
  <g
     inkscape:label="Layer 1"
     inkscape:groupmode="layer"
     id="layer1"
     transform="translate(11.942639,50.770905)">
    <g
       id="g802"
       transform="matrix(0.26458333,0,0,0.26458333,-11.942639,-50.770905)">
      <path
         id="path752"
         d="M 0,117 H 285 V 402 H 0 Z"
         inkscape:connector-curvature="0"
         style="fill:#d90000" />
      <circle
         id="circle754"
         r="110.2"
         cy="258.20001"
         cx="142.89999"
         style="fill:#0f1177" />
      <path
         id="path756"
         d="m 162.9,266.3 h 64.7 c -1.5,16.2 -7.6,31.1 -16.9,43.4 h 15.8 c 9.2,-15 14.6,-32.5 14.6,-51.4 0,-51.9 -40.3,-94.3 -91.3,-97.9 v 195.8 c 4.5,-0.3 8.8,-1 13.1,-2 z m 0,-90.8 c 35.4,8.6 62.2,39.3 64.8,76.7 h -64.8 z"
         inkscape:connector-curvature="0"
         style="fill:#ffffff" />
      <path
         id="path758"
         d="m 123.1,354.2 c 4.3,0.9 8.7,1.6 13.1,2 V 160.4 c -51,3.6 -91.2,46 -91.2,97.9 0,18.9 5.4,36.4 14.5,51.4 H 75.4 C 66.1,297.4 60,282.5 58.5,266.3 h 64.7 z m 0.1,-102 H 58.4 c 2.6,-37.4 29.3,-68.1 64.8,-76.7 z"
         inkscape:connector-curvature="0"
         style="fill:#ffffff" />
      <path
         id="path760"
         d="M 0.2,30.4 C 0.1,30.4 0,30.5 0,30.5 v 86.1 c 0,0 66.2,-41 142.9,-41 76.7,0 142.9,41 142.9,41 V 30.5 c 0,0 -0.1,-0.1 -0.3,-0.1 C 250.4,16 198.7,0 142.9,0 87,0 35.3,16 0.2,30.4 Z"
         inkscape:connector-curvature="0"
         style="fill:#0f1177" />
      <path
         id="path762"
         d="M 10.5,37.6 V 99 C 35.3,86.5 86,65.2 142.9,65.2 199.8,65.2 250.5,86.5 275.3,99 V 37.6 C 242.3,24.7 194.4,10.5 142.9,10.5 91.4,10.5 43.5,24.7 10.5,37.6 Z"
         inkscape:connector-curvature="0"
         style="fill:none;stroke:#0f298f;stroke-width:2" />
      <path
         id="path764"
         d="m 45.7,34.5 c 3.5,12.4 7,24.7 10.6,37.1 -3.4,1.1 -5,1.6 -8.4,2.8 -0.7,-3.2 -1.1,-4.8 -1.8,-8 -4.2,1.5 -6.3,2.3 -10.5,4 -0.7,3.7 -1.1,5.6 -1.8,9.3 -3.3,1.4 -4.9,2.1 -8.2,3.5 3.4,-15 6.9,-30.1 10.3,-45.1 3.9,-1.4 5.9,-2.2 9.8,-3.6 z m -1,25.7 c -1.5,-6.8 -2.3,-10.1 -3.8,-16.8 -0.1,0 -0.1,0 -0.1,0 -1.5,7.9 -2.3,11.8 -3.8,19.8 3,-1.3 4.6,-1.9 7.7,-3 z"
         inkscape:connector-curvature="0"
         style="fill:#ffffff" />
      <path
         id="path766"
         d="m 59.5,29.9 c 3.2,-1 4.9,-1.5 8.1,-2.3 0,13.6 0,27.1 0,40.7 -3.3,0.9 -4.9,1.4 -8.1,2.3 0,-13.6 0,-27.1 0,-40.7 z"
         inkscape:connector-curvature="0"
         style="fill:#ffffff" />
      <path
         id="path768"
         d="m 88.9,22.7 c 3.4,-0.7 6.1,-0.2 8.1,1.2 1.9,1.4 2.9,3.9 2.9,7.4 0,2.7 -0.6,5 -1.7,6.9 -1.1,1.9 -2.8,3.3 -5.2,4.2 0,0 0,0.1 0,0.1 2.1,-0.1 3.6,0.4 4.6,1.2 1,0.9 1.6,2.4 1.8,4.7 0.1,0.7 0.1,1.6 0.2,2.5 0,0.9 0.1,1.9 0.1,3 0.1,2.1 0.1,3.9 0.3,4.9 0.2,1.1 0.7,1.8 1.5,2.1 0,0.1 0,0.2 0,0.3 -3.6,0.5 -5.4,0.8 -9,1.4 -0.4,-0.5 -0.7,-1.1 -0.8,-1.8 -0.1,-0.7 -0.2,-1.5 -0.2,-2.3 -0.1,-3.1 -0.1,-4.7 -0.2,-7.8 -0.1,-1.6 -0.5,-2.8 -1.2,-3.5 -0.7,-0.8 -2,-1 -3.7,-0.7 -1.8,0.4 -2.7,0.5 -4.4,0.9 0,6.9 0,10.3 0,17.2 -3.3,0.7 -4.9,1.1 -8.2,1.9 0,-13.6 0,-27.1 0,-40.7 6,-1.3 9,-2 15.1,-3.1 z m -3.5,18.4 c 2,-0.4 3.5,-1.2 4.6,-2.3 1.1,-1.1 1.6,-2.8 1.6,-5 0,-3.8 -1.9,-5.3 -5.7,-4.5 -1.6,0.3 -2.3,0.5 -3.9,0.8 0,4.7 0,7 0,11.7 1.3,-0.3 2,-0.4 3.4,-0.7 z"
         inkscape:connector-curvature="0"
         style="fill:#ffffff" />
      <path
         id="path770"
         d="m 119.6,18.6 c 1.7,-0.1 3.3,-0.1 4.7,0.2 1.5,0.3 2.7,0.8 3.8,1.5 1,0.7 1.9,1.8 2.4,3.1 0.6,1.3 0.9,2.9 0.9,4.9 0,2.2 -0.5,4.1 -1.6,5.7 -1.1,1.6 -2.6,2.8 -4.7,3.4 0,0 0,0.1 0,0.1 2.3,0.2 4.2,1.1 5.5,2.6 1.4,1.6 2,3.7 2,6.5 0,1.6 -0.2,3.1 -0.6,4.6 -0.4,1.5 -1.2,2.7 -2.2,3.9 -1,1.1 -2.4,2 -4,2.8 -1.6,0.8 -3.7,1.2 -6.1,1.4 -5.7,0.4 -8.5,0.7 -14.1,1.4 0,-13.6 0,-27.1 0,-40.7 5.6,-0.7 8.4,-1 14,-1.4 z m -3.2,16.9 c 2.3,-0.2 4,-0.7 5.1,-1.6 1.1,-0.9 1.6,-2.3 1.6,-4.2 0,-2 -0.5,-3.3 -1.5,-4 -1,-0.7 -2.5,-1 -4.6,-0.8 -1.2,0.1 -1.8,0.2 -3,0.3 0,4.3 0,6.4 0,10.6 1,-0.2 1.4,-0.2 2.4,-0.3 z m 0.9,17.9 c 2,-0.2 3.7,-0.7 4.9,-1.7 1.2,-1 1.9,-2.6 1.9,-5 0,-1.2 -0.2,-2.1 -0.5,-2.9 -0.3,-0.8 -0.8,-1.4 -1.3,-1.81 -0.6,-0.4 -1.2,-0.7 -2,-0.9 -0.8,-0.1 -1.6,-0.2 -2.6,-0.1 -1.4,0.1 -2.2,0.2 -3.6,0.3 0,4.9 0,7.4 0,12.3 1.2,0.01 1.9,-0.09 3.2,-0.19 z"
         inkscape:connector-curvature="0"
         style="fill:#ffffff" />
      <path
         id="path772"
         d="m 137.5,29.6 c 0.3,-2.6 0.9,-4.8 1.9,-6.7 1,-1.9 2.4,-3.3 4.3,-4.4 1.9,-1 4.4,-1.5 7.5,-1.4 3.2,0.1 5.7,0.8 7.5,1.9 1.9,1.2 3.3,2.7 4.3,4.7 1,1.9 1.6,4.2 1.9,6.8 0.3,2.6 0.4,5.5 0.4,8.5 0,3.1 -0.1,5.9 -0.4,8.5 -0.3,2.6 -1,4.7 -1.9,6.5 -1,1.8 -2.4,3.1 -4.3,4 -1.9,0.9 -4.4,1.2 -7.5,1.1 -3.1,-0.1 -5.7,-0.6 -7.5,-1.6 -1.9,-1 -3.3,-2.4 -4.3,-4.3 -1,-1.9 -1.6,-4.1 -1.9,-6.6 -0.3,-2.6 -0.4,-5.42 -0.4,-8.5 0,-3.1 0.1,-5.9 0.4,-8.5 z m 8.2,15.4 c 0.1,1.9 0.4,3.5 0.8,4.7 0.4,1.2 1,2.1 1.8,2.7 0.8,0.6 1.8,0.9 3,0.9 1.2,0 2.2,-0.2 3,-0.7 0.8,-0.5 1.3,-1.4 1.8,-2.5 0.4,-1.2 0.7,-2.7 0.8,-4.6 0.1,-1.9 0.2,-4.2 0.2,-7 0,-2.7 -0.1,-5.1 -0.2,-7 -0.1,-1.9 -0.4,-3.5 -0.8,-4.7 -0.4,-1.2 -1,-2.1 -1.8,-2.7 -0.8,-0.6 -1.8,-0.9 -3,-0.9 -1.2,0 -2.2,0.2 -3,0.7 -0.8,0.5 -1.3,1.4 -1.8,2.6 -0.4,1.2 -0.7,2.8 -0.8,4.7 -0.1,1.9 -0.2,4.2 -0.2,6.9 0,2.7 0,5 0.2,7 z"
         inkscape:connector-curvature="0"
         style="fill:#ffffff" />
      <path
         id="path774"
         d="m 185.7,21.2 c 3.5,0.6 6.1,1.9 8.1,4 1.9,2.1 2.9,4.9 2.9,8.4 0,2.7 -0.6,4.9 -1.7,6.4 -1.1,1.5 -2.8,2.3 -5.2,2.4 0,0 0,0.1 0,0.1 2.1,0.7 3.6,1.6 4.5,2.8 1,1.2 1.6,3 1.8,5.3 0.1,0.8 0.1,1.6 0.2,2.5 0,0.9 0.1,1.9 0.1,3 0.1,2.2 0.1,3.9 0.3,5 0.2,1.1 0.7,2.1 1.5,2.6 0,0.1 0,0.2 0,0.3 -3.6,-0.7 -5.4,-1.1 -9,-1.7 -0.4,-0.6 -0.7,-1.3 -0.8,-2.1 -0.1,-0.8 -0.2,-1.5 -0.2,-2.3 -0.1,-3.1 -0.1,-4.7 -0.2,-7.8 -0.1,-1.6 -0.5,-2.9 -1.2,-4 -0.7,-1 -2,-1.7 -3.7,-1.9 -1.8,-0.3 -2.7,-0.4 -4.5,-0.6 0,6.9 0,10.3 0,17.2 -3.3,-0.4 -5,-0.6 -8.3,-1 0,-13.6 0,-27.1 0,-40.7 6.2,0.7 9.3,1.1 15.4,2.1 z m -3.6,17.2 c 2,0.3 3.5,0.1 4.6,-0.7 1,-0.8 1.6,-2.2 1.6,-4.4 0,-3.8 -1.9,-6 -5.8,-6.5 -1.6,-0.2 -2.4,-0.3 -3.9,-0.6 0,4.7 0,7 0,11.7 1.5,0.2 2.1,0.3 3.5,0.5 z"
         inkscape:connector-curvature="0"
         style="fill:#ffffff" />
      <path
         id="path776"
         d="m 221.7,57.2 c 0,0 0.1,0 0.1,0 0,-9.3 0,-18.6 0,-27.8 3,0.9 4.5,1.4 7.4,2.3 0,13.6 0,27.1 0,40.7 -3.7,-1.2 -5.5,-1.8 -9.2,-2.9 -3.3,-10.4 -6.6,-20.8 -10,-31.2 0,0 -0.1,0 -0.1,0 0,9.5 0,19 0,28.5 -3,-0.8 -4.5,-1.1 -7.5,-1.8 0,-13.6 0,-27.1 0,-40.7 3.8,0.8 5.7,1.3 9.5,2.3 3.3,10.2 6.5,20.4 9.8,30.6 z"
         inkscape:connector-curvature="0"
         style="fill:#ffffff" />
      <path
         id="path778"
         d="m 256.8,49.1 c -5.5,-2.5 -8.3,-3.7 -14,-5.8 0,3.8 0,5.7 0,9.6 5.3,2 7.9,3.1 13.2,5.5 0,2.7 0,4 0,6.7 -5.2,-2.3 -7.9,-3.4 -13.2,-5.5 0,4.4 0,6.6 0,10.9 5.9,2.3 8.8,3.5 14.5,6.1 0,2.7 0,4 0,6.7 -8.9,-4 -13.4,-5.8 -22.5,-9 0,-13.6 0,-27.1 0,-40.7 8.9,3.1 13.3,4.9 22,8.8 0,2.7 0,4.1 0,6.7 z"
         inkscape:connector-curvature="0"
         style="fill:#ffffff" />
    </g>
  </g>
</svg>
