<?xml version="1.0" encoding="UTF-8" standalone="no"?>
<!-- Created with Inkscape (http://www.inkscape.org/) -->

<svg
   xmlns:dc="http://purl.org/dc/elements/1.1/"
   xmlns:cc="http://creativecommons.org/ns#"
   xmlns:rdf="http://www.w3.org/1999/02/22-rdf-syntax-ns#"
   xmlns:svg="http://www.w3.org/2000/svg"
   xmlns="http://www.w3.org/2000/svg"
   xmlns:sodipodi="http://sodipodi.sourceforge.net/DTD/sodipodi-0.dtd"
   xmlns:inkscape="http://www.inkscape.org/namespaces/inkscape"
   width="155.54628mm"
   height="155.54628mm"
   viewBox="0 0 155.54631 155.54627"
   version="1.1"
   id="svg8"
   sodipodi:docname="neutral-infantry-division.svg"
   inkscape:version="0.92.4 (5da689c313, 2019-01-14)">
  <defs
     id="defs2">
    <linearGradient
       id="linearGradient3777">
      <stop
         offset="0"
         style="stop-color:#b35800;stop-opacity:1"
         id="stop3779" />
    </linearGradient>
  </defs>
  <sodipodi:namedview
     id="base"
     pagecolor="#ffffff"
     bordercolor="#666666"
     borderopacity="1.0"
     inkscape:pageopacity="0.0"
     inkscape:pageshadow="2"
     inkscape:zoom="0.49497475"
     inkscape:cx="320.89243"
     inkscape:cy="185.69817"
     inkscape:document-units="mm"
     inkscape:current-layer="layer1"
     showgrid="false"
     inkscape:window-width="960"
     inkscape:window-height="1057"
     inkscape:window-x="952"
     inkscape:window-y="-8"
     inkscape:window-maximized="0" />
  <metadata
     id="metadata5">
    <rdf:RDF>
      <cc:Work
         rdf:about="">
        <dc:format>image/svg+xml</dc:format>
        <dc:type
           rdf:resource="http://purl.org/dc/dcmitype/StillImage" />
        <dc:title></dc:title>
      </cc:Work>
    </rdf:RDF>
  </metadata>
  <g
     inkscape:label="Layer 1"
     inkscape:groupmode="layer"
     id="layer1"
     transform="translate(14.089987,98.772565)">
    <path
       style="fill:#ffff7f;fill-opacity:1;stroke:#ffff05;stroke-width:2.11666656;stroke-linecap:butt;stroke-linejoin:miter;stroke-miterlimit:4;stroke-dasharray:none;stroke-opacity:1"
       id="path3787-1-8-1"
       d="m 103.33231,17.363525 c 5.02118,0 8.75416,-0.998564 13.39298,-2.920418 4.63882,-1.921851 8.89361,-4.7654759 12.4436,-8.3164939 3.54999,-3.551015 6.39239,-7.806629 8.3129,-12.446003 1.92051,-4.6393761 2.91763,-9.6588601 2.91617,-14.6800331 0.002,-5.021172 -0.99566,-10.040654 -2.91617,-14.68003 -1.92051,-4.639374 -4.76291,-8.894988 -8.3129,-12.446003 -3.54999,-3.551015 -7.80478,-6.394643 -12.4436,-8.316497 -4.63882,-1.921852 -8.3718,-2.920418 -13.39298,-2.920418 h -1.28621 c 0,-5.02117 -0.99856,-10.040366 -2.920419,-14.679185 -1.92185,-4.63882 -4.76547,-8.893608 -8.31649,-12.4436 -3.55101,-3.549992 -7.806631,-6.392389 -12.446001,-8.312899 -4.639377,-1.920513 -9.658861,-2.917782 -14.680034,-2.916175 -5.021172,-0.0016 -10.040657,0.995662 -14.680033,2.916175 -4.639373,1.92051 -8.894987,4.762907 -12.446,8.312899 -3.551018,3.549992 -6.394643,7.80478 -8.316494,12.4436 -1.921854,4.638819 -2.920421,9.658015 -2.920421,14.679185 h -1.286213 c -5.021173,0 -8.754153,0.998564 -13.392973,2.920418 -4.63882,1.921851 -8.893608,4.765476 -12.4436,8.316494 -3.5499913,3.551015 -6.3923884,7.806629 -8.312899,12.446003 -1.920513,4.639376 -2.917782,9.658861 -2.916175,14.680033 -0.0015,5.021173 0.995662,10.040657 2.916175,14.6800331 1.9205106,4.639374 4.7629077,8.894988 8.312899,12.446006 3.549992,3.551015 7.80478,6.3946399 12.4436,8.3164909 4.63882,1.921854 8.3718,2.920418 13.392973,2.920418 h 1.286213 c 0,5.021173 0.998569,10.040369 2.920421,14.679187 1.921851,4.63882 4.765476,8.893609 8.316494,12.4436 3.551013,3.549991 7.806627,6.392389 12.446,8.312899 4.639376,1.920515 9.658861,2.917782 14.680033,2.916176 5.021173,0.0016 10.040657,-0.995661 14.680034,-2.916176 4.63937,-1.92051 8.894991,-4.762908 12.446001,-8.312899 3.55102,-3.549991 6.39464,-7.80478 8.31649,-12.4436 1.921859,-4.638818 2.920419,-9.658014 2.920419,-14.679187 z"
       inkscape:connector-curvature="0" />
    <g
       id="g656"
       transform="matrix(0.26458333,0,0,0.26458333,-14.753772,-99.436347)">
      <path
         style="fill:none;stroke:#000000;stroke-width:8;stroke-linecap:butt;stroke-linejoin:miter;stroke-miterlimit:4;stroke-dasharray:none;stroke-opacity:1"
         id="path2993"
         d="m 95.980321,430.41054 c 0,0 79.881429,-114.76305 200.474219,-114.76303 120.59279,2e-5 200.47421,114.76303 200.47421,114.76303"
         inkscape:connector-curvature="0" />
      <path
         style="fill:none;stroke:#ffff05;stroke-width:8;stroke-linecap:butt;stroke-linejoin:miter;stroke-miterlimit:4;stroke-dasharray:none;stroke-opacity:1"
         id="path3787-1-8-1-6"
         d="m 446.30962,441.44834 c 18.97766,0 33.08658,-3.7741 50.61913,-11.0378 17.53254,-7.26369 33.61363,-18.01125 47.03092,-31.43242 13.41729,-13.42116 24.16021,-29.50537 31.41883,-47.04001 7.25864,-17.53465 11.02726,-36.50593 11.02176,-55.48359 0.006,-18.97766 -3.76312,-37.94893 -11.02176,-55.48358 -7.25862,-17.53464 -18.00154,-33.61885 -31.41883,-47.04001 -13.41729,-13.42116 -29.49838,-24.16873 -47.03092,-31.43243 -17.53255,-7.26369 -31.64147,-11.0378 -50.61913,-11.0378 h -4.86128 c 0,-18.97765 -3.7741,-37.94784 -11.0378,-55.480383 -7.26369,-17.532548 -18.01125,-33.613639 -31.43242,-47.03093 -13.42115,-13.417291 -29.50537,-24.16021 -47.04,-31.418831 -17.53465,-7.258632 -36.50593,-11.0278382 -55.48359,-11.0217622 -18.97766,-0.0061 -37.94894,3.7631302 -55.48359,11.0217622 -17.53464,7.258621 -33.61885,18.00154 -47.04,31.418831 -13.42117,13.417291 -24.16873,29.498382 -31.43242,47.03093 -7.2637,17.532543 -11.03781,36.502733 -11.03781,55.480383 h -4.86128 c -18.97766,0 -33.08656,3.7741 -50.619109,11.0378 -17.532547,7.26369 -33.613637,18.01125 -47.030928,31.43242 -13.417291,13.42116 -24.160209,29.50537 -31.418832,47.04001 -7.258632,17.53465 -11.0278376,36.50593 -11.0217616,55.48359 -0.0055,18.97766 3.7631296,37.94894 11.0217616,55.48359 7.258623,17.53464 18.001541,33.61885 31.418832,47.04002 13.417291,13.42116 29.498381,24.16872 47.030928,31.43241 17.532549,7.2637 31.641449,11.0378 50.619109,11.0378 h 4.86128 c 0,18.97766 3.77412,37.94785 11.03781,55.48039 7.26369,17.53255 18.01125,33.61364 31.43242,47.03093 13.42115,13.41729 29.50536,24.16021 47.04,31.41883 17.53465,7.25864 36.50593,11.02784 55.48359,11.02177 18.97766,0.006 37.94894,-3.76313 55.48359,-11.02177 17.53463,-7.25862 33.61885,-18.00154 47.04,-31.41883 13.42117,-13.41729 24.16873,-29.49838 31.43242,-47.03093 7.2637,-17.53254 11.0378,-36.50273 11.0378,-55.48039 z"
         inkscape:connector-curvature="0" />
    </g>
  </g>
</svg>
