<?xml version="1.0" encoding="UTF-8" standalone="no"?>
<!-- Created with Inkscape (http://www.inkscape.org/) -->

<svg
   xmlns:dc="http://purl.org/dc/elements/1.1/"
   xmlns:cc="http://creativecommons.org/ns#"
   xmlns:rdf="http://www.w3.org/1999/02/22-rdf-syntax-ns#"
   xmlns:svg="http://www.w3.org/2000/svg"
   xmlns="http://www.w3.org/2000/svg"
   version="1.1"
   width="592.90906"
   height="592.90906"
   id="svg2">
  <defs
     id="defs4">
    <linearGradient
       id="linearGradient3777">
      <stop
         id="stop3779"
         style="stop-color:#b35800;stop-opacity:1"
         offset="0" />
    </linearGradient>
    <linearGradient
       id="linearGradient3777-4">
      <stop
         id="stop3779-0"
         style="stop-color:#b35800;stop-opacity:1"
         offset="0" />
    </linearGradient>
    <linearGradient
       id="linearGradient3777-40">
      <stop
         id="stop3779-9"
         style="stop-color:#b35800;stop-opacity:1"
         offset="0" />
    </linearGradient>
    <linearGradient
       id="linearGradient3777-4-8">
      <stop
         id="stop3779-0-8"
         style="stop-color:#b35800;stop-opacity:1"
         offset="0" />
    </linearGradient>
    <linearGradient
       id="linearGradient3777-409">
      <stop
         id="stop3779-4"
         style="stop-color:#b35800;stop-opacity:1"
         offset="0" />
    </linearGradient>
  </defs>
  <metadata
     id="metadata7">
    <rdf:RDF>
      <cc:Work
         rdf:about="">
        <dc:format>image/svg+xml</dc:format>
        <dc:type
           rdf:resource="http://purl.org/dc/dcmitype/StillImage" />
        <dc:title></dc:title>
      </cc:Work>
    </rdf:RDF>
  </metadata>
  <path
     d="m 95.980321,430.41054 c 0,0 79.881429,-114.76305 200.474219,-114.76303 120.59279,2e-5 200.47421,114.76303 200.47421,114.76303"
     id="path2993"
     style="fill:none;stroke:#000000;stroke-width:8;stroke-linecap:butt;stroke-linejoin:miter;stroke-miterlimit:4;stroke-opacity:1;stroke-dasharray:none" />
  <path
     d="m 446.30962,441.44834 c 18.97766,0 33.08658,-3.7741 50.61913,-11.0378 17.53254,-7.26369 33.61363,-18.01125 47.03092,-31.43242 13.41729,-13.42116 24.16021,-29.50537 31.41883,-47.04001 7.25864,-17.53465 11.02726,-36.50593 11.02176,-55.48359 0.006,-18.97766 -3.76312,-37.94893 -11.02176,-55.48358 -7.25862,-17.53464 -18.00154,-33.61885 -31.41883,-47.04001 -13.41729,-13.42116 -29.49838,-24.16873 -47.03092,-31.43243 -17.53255,-7.26369 -31.64147,-11.0378 -50.61913,-11.0378 l -4.86128,0 c 0,-18.97765 -3.7741,-37.94784 -11.0378,-55.480383 -7.26369,-17.532548 -18.01125,-33.613639 -31.43242,-47.03093 -13.42115,-13.417291 -29.50537,-24.16021 -47.04,-31.418831 -17.53465,-7.258632 -36.50593,-11.0278382 -55.48359,-11.0217622 -18.97766,-0.0061 -37.94894,3.7631302 -55.48359,11.0217622 -17.53464,7.258621 -33.61885,18.00154 -47.04,31.418831 -13.42117,13.417291 -24.16873,29.498382 -31.43242,47.03093 -7.2637,17.532543 -11.03781,36.502733 -11.03781,55.480383 l -4.86128,0 c -18.97766,0 -33.08656,3.7741 -50.619109,11.0378 -17.532547,7.26369 -33.613637,18.01125 -47.030928,31.43242 -13.417291,13.42116 -24.160209,29.50537 -31.418832,47.04001 -7.258632,17.53465 -11.0278376,36.50593 -11.0217616,55.48359 -0.0055,18.97766 3.7631296,37.94894 11.0217616,55.48359 7.258623,17.53464 18.001541,33.61885 31.418832,47.04002 13.417291,13.42116 29.498381,24.16872 47.030928,31.43241 17.532549,7.2637 31.641449,11.0378 50.619109,11.0378 l 4.86128,0 c 0,18.97766 3.77412,37.94785 11.03781,55.48039 7.26369,17.53255 18.01125,33.61364 31.43242,47.03093 13.42115,13.41729 29.50536,24.16021 47.04,31.41883 17.53465,7.25864 36.50593,11.02784 55.48359,11.02177 18.97766,0.006 37.94894,-3.76313 55.48359,-11.02177 17.53463,-7.25862 33.61885,-18.00154 47.04,-31.41883 13.42117,-13.41729 24.16873,-29.49838 31.43242,-47.03093 7.2637,-17.53254 11.0378,-36.50273 11.0378,-55.48039 z"
     id="path3787-1-8-1"
     style="fill:none;stroke:#ffff05;stroke-width:8;stroke-linecap:butt;stroke-linejoin:miter;stroke-miterlimit:4;stroke-opacity:1;stroke-dasharray:none" />
</svg>
